# Blender v3.0.1 OBJ File: ''
# www.blender.org
mtllib model.mtl
o villager.png
v -2.000000 -5.000001 2.000001
v -2.000000 -5.000002 -2.000000
v 2.000000 -5.000002 -2.000000
v 2.000000 -5.000001 2.000001
v -2.000000 0.000000 2.000001
v 2.000000 0.000000 2.000001
v 2.000000 -0.000000 -2.000001
v -2.000000 -0.000000 -2.000001
v -2.000000 -5.000001 2.000001
v 2.000000 -5.000001 2.000001
v 2.000000 0.000000 2.000001
v -2.000000 0.000000 2.000001
v 2.000000 -5.000001 2.000001
v 2.000000 -5.000002 -2.000000
v 2.000000 -0.000000 -2.000001
v 2.000000 0.000000 2.000001
v 2.000000 -5.000002 -2.000000
v -2.000000 -5.000002 -2.000000
v -2.000000 -0.000000 -2.000001
v 2.000000 -0.000000 -2.000001
v -2.000000 -5.000002 -2.000000
v -2.000000 -5.000001 2.000001
v -2.000000 0.000000 2.000001
v -2.000000 -0.000000 -2.000001
v -2.096750 -15.241880 -1.572562
v -2.096750 -4.758126 -1.572562
v 2.096750 -4.758126 -1.572562
v 2.096750 -15.241880 -1.572562
v -2.096750 -15.241880 1.572564
v 2.096750 -15.241880 1.572564
v 2.096750 -4.758126 1.572565
v -2.096750 -4.758126 1.572565
v -2.096750 -15.241880 -1.572562
v 2.096750 -15.241880 -1.572562
v 2.096750 -15.241880 1.572564
v -2.096750 -15.241880 1.572564
v 2.096750 -15.241880 -1.572562
v 2.096750 -4.758126 -1.572562
v 2.096750 -4.758126 1.572565
v 2.096750 -15.241880 1.572564
v 2.096750 -4.758126 -1.572562
v -2.096750 -4.758126 -1.572562
v -2.096750 -4.758126 1.572565
v 2.096750 -4.758126 1.572565
v -2.096750 -4.758126 -1.572562
v -2.096750 -15.241880 -1.572562
v -2.096750 -15.241880 1.572564
v -2.096750 -4.758126 1.572565
v -4.000000 -9.299150 1.640521
v -4.000000 -6.470722 -1.187908
v -2.000000 -6.470722 -1.187908
v -2.000000 -9.299150 1.640521
v -4.000000 -7.884936 3.054735
v -2.000000 -7.884936 3.054735
v -2.000000 -5.056508 0.226306
v -4.000000 -5.056508 0.226306
v -4.000000 -9.299150 1.640521
v -2.000000 -9.299150 1.640521
v -2.000000 -7.884936 3.054735
v -4.000000 -7.884936 3.054735
v -2.000000 -9.299150 1.640521
v -2.000000 -6.470722 -1.187908
v -2.000000 -5.056508 0.226306
v -2.000000 -7.884936 3.054735
v -2.000000 -6.470722 -1.187908
v -4.000000 -6.470722 -1.187908
v -4.000000 -5.056508 0.226306
v -2.000000 -5.056508 0.226306
v -4.000000 -6.470722 -1.187908
v -4.000000 -9.299150 1.640521
v -4.000000 -7.884936 3.054735
v -4.000000 -5.056508 0.226306
v -2.000000 -9.299150 1.640521
v -2.000000 -7.884936 0.226306
v 2.000000 -7.884936 0.226306
v 2.000000 -9.299150 1.640521
v -2.000000 -7.884935 3.054734
v 2.000000 -7.884935 3.054734
v 2.000000 -6.470722 1.640520
v -2.000000 -6.470722 1.640520
v -2.000000 -9.299150 1.640521
v 2.000000 -9.299150 1.640521
v 2.000000 -7.884935 3.054734
v -2.000000 -7.884935 3.054734
v 2.000000 -9.299150 1.640521
v 2.000000 -7.884936 0.226306
v 2.000000 -6.470722 1.640520
v 2.000000 -7.884935 3.054734
v 2.000000 -7.884936 0.226306
v -2.000000 -7.884936 0.226306
v -2.000000 -6.470722 1.640520
v 2.000000 -6.470722 1.640520
v -2.000000 -7.884936 0.226306
v -2.000000 -9.299150 1.640521
v -2.000000 -7.884935 3.054734
v -2.000000 -6.470722 1.640520
v 2.000000 -9.299150 1.640521
v 2.000000 -6.470722 -1.187908
v 4.000000 -6.470722 -1.187908
v 4.000000 -9.299150 1.640521
v 2.000000 -7.884936 3.054735
v 4.000000 -7.884936 3.054735
v 4.000000 -5.056508 0.226306
v 2.000000 -5.056508 0.226306
v 2.000000 -9.299150 1.640521
v 4.000000 -9.299150 1.640521
v 4.000000 -7.884936 3.054735
v 2.000000 -7.884936 3.054735
v 4.000000 -9.299150 1.640521
v 4.000000 -6.470722 -1.187908
v 4.000000 -5.056508 0.226306
v 4.000000 -7.884936 3.054735
v 4.000000 -6.470722 -1.187908
v 2.000000 -6.470722 -1.187908
v 2.000000 -5.056508 0.226306
v 4.000000 -5.056508 0.226306
v 2.000000 -6.470722 -1.187908
v 2.000000 -9.299150 1.640521
v 2.000000 -7.884936 3.054735
v 2.000000 -5.056508 0.226306
v 0.000000 -17.000006 1.000003
v 0.000000 -17.000006 -0.999998
v 2.000000 -17.000006 -0.999998
v 2.000000 -17.000006 1.000003
v 0.000000 -11.000004 1.000002
v 2.000000 -11.000004 1.000002
v 2.000000 -11.000004 -0.999999
v 0.000000 -11.000004 -0.999999
v 0.000000 -17.000006 1.000003
v 2.000000 -17.000006 1.000003
v 2.000000 -11.000004 1.000002
v 0.000000 -11.000004 1.000002
v 2.000000 -17.000006 1.000003
v 2.000000 -17.000006 -0.999998
v 2.000000 -11.000004 -0.999999
v 2.000000 -11.000004 1.000002
v 2.000000 -17.000006 -0.999998
v 0.000000 -17.000006 -0.999998
v 0.000000 -11.000004 -0.999999
v 2.000000 -11.000004 -0.999999
v 0.000000 -17.000006 -0.999998
v 0.000000 -17.000006 1.000003
v 0.000000 -11.000004 1.000002
v 0.000000 -11.000004 -0.999999
v -2.000000 -17.000006 1.000003
v -2.000000 -17.000006 -0.999998
v 0.000000 -17.000006 -0.999998
v 0.000000 -17.000006 1.000003
v -2.000000 -11.000004 1.000002
v 0.000000 -11.000004 1.000002
v 0.000000 -11.000004 -0.999999
v -2.000000 -11.000004 -0.999999
v -2.000000 -17.000006 1.000003
v 0.000000 -17.000006 1.000003
v 0.000000 -11.000004 1.000002
v -2.000000 -11.000004 1.000002
v 0.000000 -17.000006 1.000003
v 0.000000 -17.000006 -0.999998
v 0.000000 -11.000004 -0.999999
v 0.000000 -11.000004 1.000002
v 0.000000 -17.000006 -0.999998
v -2.000000 -17.000006 -0.999998
v -2.000000 -11.000004 -0.999999
v 0.000000 -11.000004 -0.999999
v -2.000000 -17.000006 -0.999998
v -2.000000 -17.000006 1.000003
v -2.000000 -11.000004 1.000002
v -2.000000 -11.000004 -0.999999
v -2.000000 -11.000004 1.500002
v -2.000000 -11.000004 -1.499999
v 2.000000 -11.000004 -1.499999
v 2.000000 -11.000004 1.500002
v -2.000000 -5.000002 1.500001
v 2.000000 -5.000002 1.500001
v 2.000000 -5.000002 -1.500000
v -2.000000 -5.000002 -1.500000
v -2.000000 -11.000004 1.500002
v 2.000000 -11.000004 1.500002
v 2.000000 -5.000002 1.500001
v -2.000000 -5.000002 1.500001
v 2.000000 -11.000004 1.500002
v 2.000000 -11.000004 -1.499999
v 2.000000 -5.000002 -1.500000
v 2.000000 -5.000002 1.500001
v 2.000000 -11.000004 -1.499999
v -2.000000 -11.000004 -1.499999
v -2.000000 -5.000002 -1.500000
v 2.000000 -5.000002 -1.500000
v -2.000000 -11.000004 -1.499999
v -2.000000 -11.000004 1.500002
v -2.000000 -5.000002 1.500001
v -2.000000 -5.000002 -1.500000
v -0.500000 -5.500002 3.000002
v -0.500000 -5.500002 2.000001
v 0.500000 -5.500002 2.000001
v 0.500000 -5.500002 3.000002
v -0.500000 -3.500001 3.000001
v 0.500000 -3.500001 3.000001
v 0.500000 -3.500001 2.000001
v -0.500000 -3.500001 2.000001
v -0.500000 -5.500002 3.000002
v 0.500000 -5.500002 3.000002
v 0.500000 -3.500001 3.000001
v -0.500000 -3.500001 3.000001
v 0.500000 -5.500002 3.000002
v 0.500000 -5.500002 2.000001
v 0.500000 -3.500001 2.000001
v 0.500000 -3.500001 3.000001
v 0.500000 -5.500002 2.000001
v -0.500000 -5.500002 2.000001
v -0.500000 -3.500001 2.000001
v 0.500000 -3.500001 2.000001
v -0.500000 -5.500002 2.000001
v -0.500000 -5.500002 3.000002
v -0.500000 -3.500001 3.000001
v -0.500000 -3.500001 2.000001
vt 0.250000 0.125000
vt 0.250000 0.000000
vt 0.375000 0.000000
vt 0.375000 0.125000
vt 0.125000 0.125000
vt 0.250000 0.125000
vt 0.250000 0.000000
vt 0.125000 0.000000
vt 0.125000 0.280979
vt 0.250000 0.280979
vt 0.250000 0.125000
vt 0.125000 0.125000
vt 0.250000 0.280979
vt 0.375000 0.280979
vt 0.375000 0.125000
vt 0.250000 0.125000
vt 0.375000 0.280979
vt 0.500000 0.280979
vt 0.500000 0.125000
vt 0.375000 0.125000
vt 0.000000 0.280979
vt 0.125000 0.280979
vt 0.125000 0.125000
vt 0.000000 0.125000
vt 0.437500 1.000000
vt 0.437500 0.687500
vt 0.312500 0.687500
vt 0.312500 1.000000
vt 0.093911 1.000000
vt 0.218488 1.000000
vt 0.218488 0.687500
vt 0.093911 0.687500
vt 0.218488 0.593732
vt 0.312500 0.593732
vt 0.312500 0.687500
vt 0.218488 0.687500
vt 0.312500 1.000000
vt 0.312500 0.687500
vt 0.218488 0.687500
vt 0.218488 1.000000
vt 0.218488 0.593732
vt 0.093911 0.593732
vt 0.093911 0.687500
vt 0.218488 0.687500
vt 0.000000 0.687500
vt 0.000000 1.000000
vt 0.093911 1.000000
vt 0.093911 0.687500
vt 0.937500 0.531295
vt 0.937500 0.406247
vt 0.875000 0.406247
vt 0.875000 0.531295
vt 0.750000 0.531295
vt 0.812500 0.531295
vt 0.812500 0.406247
vt 0.750000 0.406247
vt 0.812500 0.350000
vt 0.875000 0.350000
vt 0.875000 0.406247
vt 0.812500 0.406247
vt 0.875000 0.531295
vt 0.875000 0.406247
vt 0.812500 0.406247
vt 0.812500 0.531295
vt 0.812500 0.350000
vt 0.750000 0.350000
vt 0.750000 0.406247
vt 0.812500 0.406247
vt 0.687500 0.406247
vt 0.687500 0.531295
vt 0.750000 0.531295
vt 0.750000 0.406247
vt 1.000000 0.718621
vt 1.000000 0.656295
vt 0.875000 0.656295
vt 0.875000 0.718621
vt 0.687500 0.718621
vt 0.812500 0.718621
vt 0.812500 0.656295
vt 0.687500 0.656295
vt 0.812500 0.600000
vt 0.937500 0.600000
vt 0.937500 0.656295
vt 0.812500 0.656295
vt 0.875000 0.718621
vt 0.875000 0.656295
vt 0.812500 0.656295
vt 0.812500 0.718621
vt 0.812500 0.600000
vt 0.687500 0.600000
vt 0.687500 0.656295
vt 0.812500 0.656295
vt 0.625000 0.656295
vt 0.625000 0.718621
vt 0.687500 0.718621
vt 0.687500 0.656295
vt 0.937500 0.531295
vt 0.937500 0.406247
vt 0.875000 0.406247
vt 0.875000 0.531295
vt 0.750000 0.531295
vt 0.812500 0.531295
vt 0.812500 0.406247
vt 0.750000 0.406247
vt 0.812500 0.350000
vt 0.875000 0.350000
vt 0.875000 0.406247
vt 0.812500 0.406247
vt 0.875000 0.531295
vt 0.875000 0.406247
vt 0.812500 0.406247
vt 0.812500 0.531295
vt 0.812500 0.350000
vt 0.750000 0.350000
vt 0.750000 0.406247
vt 0.812500 0.406247
vt 0.687500 0.406247
vt 0.687500 0.531295
vt 0.750000 0.531295
vt 0.750000 0.406247
vt 0.125000 0.406314
vt 0.125000 0.343991
vt 0.187500 0.343991
vt 0.187500 0.406314
vt 0.062500 0.406314
vt 0.125000 0.406314
vt 0.125000 0.343991
vt 0.062500 0.343991
vt 0.062500 0.593635
vt 0.125000 0.593635
vt 0.125000 0.406314
vt 0.062500 0.406314
vt 0.125000 0.593635
vt 0.187500 0.593635
vt 0.187500 0.406314
vt 0.125000 0.406314
vt 0.187500 0.593635
vt 0.250000 0.593635
vt 0.250000 0.406314
vt 0.187500 0.406314
vt 0.000000 0.593635
vt 0.062500 0.593635
vt 0.062500 0.406314
vt 0.000000 0.406314
vt 0.125000 0.406314
vt 0.125000 0.343991
vt 0.187500 0.343991
vt 0.187500 0.406314
vt 0.062500 0.406314
vt 0.125000 0.406314
vt 0.125000 0.343991
vt 0.062500 0.343991
vt 0.062500 0.593635
vt 0.125000 0.593635
vt 0.125000 0.406314
vt 0.062500 0.406314
vt 0.125000 0.593635
vt 0.187500 0.593635
vt 0.187500 0.406314
vt 0.125000 0.406314
vt 0.187500 0.593635
vt 0.250000 0.593635
vt 0.250000 0.406314
vt 0.187500 0.406314
vt 0.000000 0.593635
vt 0.062500 0.593635
vt 0.062500 0.406314
vt 0.000000 0.406314
vt 0.468687 0.406174
vt 0.468687 0.312500
vt 0.625000 0.312500
vt 0.624900 0.406174
vt 0.343778 0.406174
vt 0.468687 0.406174
vt 0.468687 0.312500
vt 0.343778 0.312500
vt 0.343778 0.593770
vt 0.468687 0.593770
vt 0.468687 0.406174
vt 0.343778 0.406174
vt 0.468687 0.593770
vt 0.562500 0.593770
vt 0.562500 0.406174
vt 0.468687 0.406174
vt 0.562500 0.593770
vt 0.687500 0.593770
vt 0.687500 0.406174
vt 0.562500 0.406174
vt 0.250000 0.593770
vt 0.343778 0.593770
vt 0.343778 0.406174
vt 0.250000 0.406174
vt 0.437500 0.031264
vt 0.437500 0.000000
vt 0.468780 0.000000
vt 0.468780 0.031264
vt 0.406256 0.031264
vt 0.437500 0.031264
vt 0.437500 0.000000
vt 0.406256 0.000000
vt 0.406256 0.093563
vt 0.437500 0.093563
vt 0.437500 0.031264
vt 0.406256 0.031264
vt 0.437500 0.093563
vt 0.468780 0.093563
vt 0.468780 0.031264
vt 0.437500 0.031264
vt 0.468780 0.093563
vt 0.500000 0.093563
vt 0.500000 0.031264
vt 0.468780 0.031264
vt 0.375008 0.093563
vt 0.406256 0.093563
vt 0.406256 0.031264
vt 0.375008 0.031264
vn 0.0000 -1.0000 0.0000
vn 0.0000 1.0000 -0.0000
vn 0.0000 0.0000 1.0000
vn 1.0000 0.0000 0.0000
vn 0.0000 -0.0000 -1.0000
vn -1.0000 -0.0000 0.0000
vn 0.0000 -0.7071 -0.7071
vn 0.0000 0.7071 0.7071
vn 0.0000 -0.7071 0.7071
vn 0.0000 0.7071 -0.7071
usemtl 02_-_Default
s off
f 1/1/1 2/2/1 3/3/1
f 1/1/1 3/3/1 4/4/1
f 5/5/2 6/6/2 7/7/2
f 5/5/2 7/7/2 8/8/2
f 9/9/3 10/10/3 11/11/3
f 9/9/3 11/11/3 12/12/3
f 13/13/4 14/14/4 15/15/4
f 13/13/4 15/15/4 16/16/4
f 17/17/5 18/18/5 19/19/5
f 17/17/5 19/19/5 20/20/5
f 21/21/6 22/22/6 23/23/6
f 21/21/6 23/23/6 24/24/6
f 25/25/5 26/26/5 27/27/5
f 25/25/5 27/27/5 28/28/5
f 29/29/3 30/30/3 31/31/3
f 29/29/3 31/31/3 32/32/3
f 33/33/1 34/34/1 35/35/1
f 33/33/1 35/35/1 36/36/1
f 37/37/4 38/38/4 39/39/4
f 37/37/4 39/39/4 40/40/4
f 41/41/2 42/42/2 43/43/2
f 41/41/2 43/43/2 44/44/2
f 45/45/6 46/46/6 47/47/6
f 45/45/6 47/47/6 48/48/6
f 49/49/7 50/50/7 51/51/7
f 49/49/7 51/51/7 52/52/7
f 53/53/8 54/54/8 55/55/8
f 53/53/8 55/55/8 56/56/8
f 57/57/9 58/58/9 59/59/9
f 57/57/9 59/59/9 60/60/9
f 61/61/4 62/62/4 63/63/4
f 61/61/4 63/63/4 64/64/4
f 65/65/10 66/66/10 67/67/10
f 65/65/10 67/67/10 68/68/10
f 69/69/6 70/70/6 71/71/6
f 69/69/6 71/71/6 72/72/6
f 73/73/7 74/74/7 75/75/7
f 73/73/7 75/75/7 76/76/7
f 77/77/8 78/78/8 79/79/8
f 77/77/8 79/79/8 80/80/8
f 81/81/9 82/82/9 83/83/9
f 81/81/9 83/83/9 84/84/9
f 85/85/4 86/86/4 87/87/4
f 85/85/4 87/87/4 88/88/4
f 89/89/10 90/90/10 91/91/10
f 89/89/10 91/91/10 92/92/10
f 93/93/6 94/94/6 95/95/6
f 93/93/6 95/95/6 96/96/6
f 97/97/7 98/98/7 99/99/7
f 97/97/7 99/99/7 100/100/7
f 101/101/8 102/102/8 103/103/8
f 101/101/8 103/103/8 104/104/8
f 105/105/9 106/106/9 107/107/9
f 105/105/9 107/107/9 108/108/9
f 109/109/4 110/110/4 111/111/4
f 109/109/4 111/111/4 112/112/4
f 113/113/10 114/114/10 115/115/10
f 113/113/10 115/115/10 116/116/10
f 117/117/6 118/118/6 119/119/6
f 117/117/6 119/119/6 120/120/6
f 121/121/1 122/122/1 123/123/1
f 121/121/1 123/123/1 124/124/1
f 125/125/2 126/126/2 127/127/2
f 125/125/2 127/127/2 128/128/2
f 129/129/3 130/130/3 131/131/3
f 129/129/3 131/131/3 132/132/3
f 133/133/4 134/134/4 135/135/4
f 133/133/4 135/135/4 136/136/4
f 137/137/5 138/138/5 139/139/5
f 137/137/5 139/139/5 140/140/5
f 141/141/6 142/142/6 143/143/6
f 141/141/6 143/143/6 144/144/6
f 145/145/1 146/146/1 147/147/1
f 145/145/1 147/147/1 148/148/1
f 149/149/2 150/150/2 151/151/2
f 149/149/2 151/151/2 152/152/2
f 153/153/3 154/154/3 155/155/3
f 153/153/3 155/155/3 156/156/3
f 157/157/4 158/158/4 159/159/4
f 157/157/4 159/159/4 160/160/4
f 161/161/5 162/162/5 163/163/5
f 161/161/5 163/163/5 164/164/5
f 165/165/6 166/166/6 167/167/6
f 165/165/6 167/167/6 168/168/6
f 169/169/1 170/170/1 171/171/1
f 169/169/1 171/171/1 172/172/1
f 173/173/2 174/174/2 175/175/2
f 173/173/2 175/175/2 176/176/2
f 177/177/3 178/178/3 179/179/3
f 177/177/3 179/179/3 180/180/3
f 181/181/4 182/182/4 183/183/4
f 181/181/4 183/183/4 184/184/4
f 185/185/5 186/186/5 187/187/5
f 185/185/5 187/187/5 188/188/5
f 189/189/6 190/190/6 191/191/6
f 189/189/6 191/191/6 192/192/6
f 193/193/1 194/194/1 195/195/1
f 193/193/1 195/195/1 196/196/1
f 197/197/2 198/198/2 199/199/2
f 197/197/2 199/199/2 200/200/2
f 201/201/3 202/202/3 203/203/3
f 201/201/3 203/203/3 204/204/3
f 205/205/4 206/206/4 207/207/4
f 205/205/4 207/207/4 208/208/4
f 209/209/5 210/210/5 211/211/5
f 209/209/5 211/211/5 212/212/5
f 213/213/6 214/214/6 215/215/6
f 213/213/6 215/215/6 216/216/6
