{
  "accessors": [
    {
      "bufferView": 2,
      "componentType": 5126,
      "count": 4442,
      "max": [
        0.7488099932670593,
        0.7199469804763794,
        0.03755800053477287
      ],
      "min": [
        -0.749439001083374,
        -0.75,
        -0.03784099966287613
      ],
      "type": "VEC3"
    },
    {
      "bufferView": 2,
      "byteOffset": 53304,
      "componentType": 5126,
      "count": 4442,
      "max": [
        0.6464271545410156,
        0.6854192614555359,
        0.9999997615814209
      ],
      "min": [
        -0.618554949760437,
        -0.6637702584266663,
        0.7234212160110474
      ],
      "type": "VEC3"
    },
    {
      "bufferView": 3,
      "componentType": 5126,
      "count": 4442,
      "max": [
        1.0,
        0.04002054035663605,
        0.6236180067062378,
        1.0
      ],
      "min": [
        0.7626135349273682,
        -0.0378984659910202,
        -0.6468536257743835,
        1.0
      ],
      "type": "VEC4"
    },
    {
      "bufferView": 1,
      "componentType": 5126,
      "count": 4442,
      "max": [
        0.9992070198059082,
        0.9799649715423584
      ],
      "min": [
        0.00037399999564513564,
        0.0
      ],
      "type": "VEC2"
    },
    {
      "bufferView": 0,
      "componentType": 5125,
      "count": 25905,
      "type": "SCALAR"
    },
    {
      "bufferView": 2,
      "byteOffset": 106608,
      "componentType": 5126,
      "count": 569,
      "max": [
        0.7488099932670593,
        0.7199469804763794,
        -0.02191700041294098
      ],
      "min": [
        -0.749439001083374,
        -0.75,
        -0.09932500123977661
      ],
      "type": "VEC3"
    },
    {
      "bufferView": 2,
      "byteOffset": 113436,
      "componentType": 5126,
      "count": 569,
      "max": [
        1.0,
        1.0,
        0.0
      ],
      "min": [
        -1.0,
        -1.0,
        -1.0
      ],
      "type": "VEC3"
    },
    {
      "bufferView": 1,
      "byteOffset": 35536,
      "componentType": 5126,
      "count": 569,
      "max": [
        0.8745620250701904,
        0.8674870133399963
      ],
      "min": [
        0.12543800473213196,
        0.13251300156116486
      ],
      "type": "VEC2"
    },
    {
      "bufferView": 0,
      "byteOffset": 103620,
      "componentType": 5125,
      "count": 1488,
      "type": "SCALAR"
    }
  ],
  "asset": {
    "extras": {
      "author": "SebastianSosnowski (https://sketchfab.com/SebastianSosnowski)",
      "license": "CC-BY-4.0 (http://creativecommons.org/licenses/by/4.0/)",
      "source": "https://sketchfab.com/3d-models/australia-gosses-bluff-crater-3cb5a0802e2f40e3b3c5e7325c3758f0",
      "title": "Australia - Gosses Bluff Crater"
    },
    "generator": "Sketchfab-12.67.0",
    "version": "2.0"
  },
  "bufferViews": [
    {
      "buffer": 0,
      "byteLength": 109572,
      "name": "floatBufferViews",
      "target": 34963
    },
    {
      "buffer": 0,
      "byteLength": 40088,
      "byteOffset": 109572,
      "byteStride": 8,
      "name": "floatBufferViews",
      "target": 34962
    },
    {
      "buffer": 0,
      "byteLength": 120264,
      "byteOffset": 149660,
      "byteStride": 12,
      "name": "floatBufferViews",
      "target": 34962
    },
    {
      "buffer": 0,
      "byteLength": 71072,
      "byteOffset": 269924,
      "byteStride": 16,
      "name": "floatBufferViews",
      "target": 34962
    }
  ],
  "buffers": [
    {
      "byteLength": 340996,
      "uri": "scene.bin"
    }
  ],
  "images": [
    {
      "uri": "textures/dupa_baseColor.png"
    },
    {
      "uri": "textures/dupa_metallicRoughness.png"
    },
    {
      "uri": "textures/dupa_normal.png"
    }
  ],
  "materials": [
    {
      "name": "dupa",
      "normalTexture": {
        "index": 2
      },
      "occlusionTexture": {
        "index": 1
      },
      "pbrMetallicRoughness": {
        "baseColorTexture": {
          "index": 0
        },
        "metallicFactor": 0.0,
        "metallicRoughnessTexture": {
          "index": 1
        }
      }
    },
    {
      "doubleSided": true,
      "name": "sraka",
      "pbrMetallicRoughness": {
        "baseColorFactor": [
          0.0,
          0.0,
          0.0,
          1.0
        ],
        "roughnessFactor": 0.9956173780487805
      }
    }
  ],
  "meshes": [
    {
      "name": "Object_0",
      "primitives": [
        {
          "attributes": {
            "NORMAL": 1,
            "POSITION": 0,
            "TANGENT": 2,
            "TEXCOORD_0": 3
          },
          "indices": 4,
          "material": 0,
          "mode": 4
        }
      ]
    },
    {
      "name": "Object_1",
      "primitives": [
        {
          "attributes": {
            "NORMAL": 6,
            "POSITION": 5,
            "TEXCOORD_0": 7
          },
          "indices": 8,
          "material": 1,
          "mode": 4
        }
      ]
    }
  ],
  "nodes": [
    {
      "children": [
        1
      ],
      "matrix": [
        1.0,
        0.0,
        0.0,
        0.0,
        0.0,
        2.220446049250313e-16,
        -1.0,
        0.0,
        0.0,
        1.0,
        2.220446049250313e-16,
        0.0,
        0.0,
        0.0,
        0.0,
        1.0
      ],
      "name": "Sketchfab_model"
    },
    {
      "children": [
        2,
        3
      ],
      "name": "GossesBluffCrater_LP.obj.cleaner.materialmerger.gles"
    },
    {
      "mesh": 0,
      "name": "Object_2"
    },
    {
      "mesh": 1,
      "name": "Object_3"
    }
  ],
  "samplers": [
    {
      "magFilter": 9729,
      "minFilter": 9987,
      "wrapS": 10497,
      "wrapT": 10497
    }
  ],
  "scene": 0,
  "scenes": [
    {
      "name": "Sketchfab_Scene",
      "nodes": [
        0
      ]
    }
  ],
  "textures": [
    {
      "sampler": 0,
      "source": 0
    },
    {
      "sampler": 0,
      "source": 1
    },
    {
      "sampler": 0,
      "source": 2
    }
  ]
}
